/* XPM */
static const char *icon_xpm[] = {
"48 48 6 1",
" 	c None",
".	c #000000",
"X	c #00FF00",
"o	c #7A7E7A",
"O	c #FFFFFF",
"+	c #9E9A9E",
"                                                ",
"   .......XX..XX.............................   ",
"  ..oo...XX....XX.....X...................oo..  ",
" ..o..o.XX......X........................o..o.. ",
" .o....oX.......XX....X.................o....o. ",
" .o....oX........X......................o....o. ",
" ..o..oX.........XX...X..................o..o.. ",
" ...ooXX..........X.......................oo... ",
" .....X...........XX..X........................ ",
" .....X............X........................... ",
" ....XX............X..X........................ ",
" ....X..............X....Oo.................... ",
" ....X..............X.X..o+o................... ",
" ...X...............XX.Oo+++o.................. ",
" ...X................XXo++++oo................. ",
" ..XX................Oo++++o.oo................ ",
" ..X.................o++++++o.oo............... ",
" ..X...............Oo++++o+++o.oo.............. ",
" .XX...............o+++++..+++.o+o............. ",
" .X..............Oo++++oo+..++..++o............ ",
" .X..............o++++....+....+++++........... ",
" XX............Oo++++..++.++oo++++oO........... ",
" X.............o++++++....++++++++oO........... ",
" XX.X.X.X.X.XOo++++++++..+++++++oOoOX.X.X.X.XXX ",
" ............o++++...+++..++++++oOoO.........X. ",
" ............o+++..++++++.++++oOoO.O.........X. ",
" ............oo++.++++.+++++++oOoO...........X. ",
" ............ooo+..+++.+++++oOoO.O..........XX. ",
" ............Oooo+..+..+++++oOoO............X.. ",
" ..............ooo+...++++oOoO.O............X.. ",
" ...............ooo+++++++oOoO.............XX.. ",
" ................ooo++++oOoO.O.............X... ",
" .................ooo+++oOoO...............X... ",
" ..................ooo+OoO.O..............XX... ",
" ...................oooOoO.X..............X.... ",
" ....................ooO.O..X............XX.... ",
" .....................oO....X............X..... ",
" ......................O....XX...........X..... ",
" .....................X......X..........XX..... ",
" ............................XX.........X...... ",
" ...oo................X.......X........XX.oo... ",
" ..o..o.......................XX.......X.o..o.. ",
" .o....o..............X........X......XXo....o. ",
" .o....o.......................XX....XX.o....o. ",
" ..o..o...............X.........XX..XX...o..o.. ",
"  ..oo...........................XXXX.....oo..  ",
"   ...................X......................   ",
"                                                "};
