/* XPM */
static char * icon_small_xpm[] = {
"25 25 168 2",
"  	c None",
". 	c #181918",
"+ 	c #3F413F",
"@ 	c #242524",
"# 	c #008600",
"$ 	c #008000",
"% 	c #000300",
"& 	c #002000",
"* 	c #00AF00",
"= 	c #000000",
"- 	c #004500",
"; 	c #010101",
"> 	c #2D2E2D",
", 	c #139F13",
"' 	c #000400",
") 	c #007200",
"! 	c #005800",
"~ 	c #131313",
"{ 	c #2CAB2C",
"] 	c #033803",
"^ 	c #001800",
"/ 	c #00B200",
"( 	c #030303",
"_ 	c #2C2D2C",
": 	c #039603",
"< 	c #000700",
"[ 	c #007100",
"} 	c #005900",
"| 	c #005000",
"1 	c #007A00",
"2 	c #001300",
"3 	c #333433",
"4 	c #020202",
"5 	c #006C00",
"6 	c #001900",
"7 	c #008800",
"8 	c #016101",
"9 	c #2B2C2B",
"0 	c #9A9A9A",
"a 	c #494A49",
"b 	c #001500",
"c 	c #008900",
"d 	c #033703",
"e 	c #25CA25",
"f 	c #9E9D9E",
"g 	c #9E9A9E",
"h 	c #828282",
"i 	c #404240",
"j 	c #007000",
"k 	c #004200",
"l 	c #040404",
"m 	c #232423",
"n 	c #9E9E9E",
"o 	c #9B989B",
"p 	c #7A7A7A",
"q 	c #4F514F",
"r 	c #3F423F",
"s 	c #00B700",
"t 	c #232323",
"u 	c #9A979A",
"v 	c #3F3F3F",
"w 	c #8F8C8F",
"x 	c #5C5B5C",
"y 	c #696B69",
"z 	c #484948",
"A 	c #008500",
"B 	c #9D999D",
"C 	c #676567",
"D 	c #3D3E3D",
"E 	c #4E4C4E",
"F 	c #2A292A",
"G 	c #323132",
"H 	c #666466",
"I 	c #999699",
"J 	c #535253",
"K 	c #004A00",
"L 	c #010401",
"M 	c #252625",
"N 	c #484748",
"O 	c #4C4A4C",
"P 	c #979597",
"Q 	c #949294",
"R 	c #949394",
"S 	c #A1A3A1",
"T 	c #000500",
"U 	c #004800",
"V 	c #2B6E2B",
"W 	c #6D6A6D",
"X 	c #545254",
"Y 	c #9C989C",
"Z 	c #272627",
"` 	c #726F72",
" .	c #929192",
"..	c #BFC1BF",
"+.	c #A1C2A1",
"@.	c #003D00",
"#.	c #00C200",
"$.	c #1C1D1C",
"%.	c #8B8B8B",
"&.	c #878487",
"*.	c #373637",
"=.	c #9B979B",
"-.	c #787578",
";.	c #716E71",
">.	c #919091",
",.	c #BEC0BE",
"'.	c #9C9D9C",
").	c #494949",
"!.	c #292929",
"~.	c #8B8E8B",
"{.	c #7D7E7D",
"].	c #7E7B7E",
"^.	c #2E2C2E",
"/.	c #908F90",
"(.	c #BCBEBC",
"_.	c #999A99",
":.	c #4F4F4F",
"<.	c #001400",
"[.	c #00B600",
"}.	c #060606",
"|.	c #1D1D1D",
"1.	c #6B6F6B",
"2.	c #787978",
"3.	c #444244",
"4.	c #686668",
"5.	c #8F8F8F",
"6.	c #BABCBA",
"7.	c #969796",
"8.	c #555555",
"9.	c #004700",
"0.	c #151615",
"a.	c #8F8E8F",
"b.	c #B8BAB8",
"c.	c #949494",
"d.	c #5A5A5A",
"e.	c #001000",
"f.	c #6C6F6C",
"g.	c #8D8D8D",
"h.	c #B3B5B3",
"i.	c #929292",
"j.	c #608660",
"k.	c #001A00",
"l.	c #00B000",
"m.	c #141514",
"n.	c #6F726F",
"o.	c #8D8E8D",
"p.	c #646464",
"q.	c #007E00",
"r.	c #004C00",
"s.	c #153215",
"t.	c #656565",
"u.	c #005400",
"v.	c #007600",
"w.	c #000900",
"x.	c #009800",
"y.	c #004000",
"z.	c #004100",
"A.	c #038603",
"B.	c #03A003",
"C.	c #2C4D2C",
"D.	c #00AD00",
"E.	c #002800",
"F.	c #008700",
"G.	c #139113",
"H.	c #002500",
"I.	c #00BB00",
"J.	c #00A100",
"K.	c #007C00",
"                                                  ",
"  . + @ # $ % & * = = - = = = = = = = = = @ + .   ",
"  + ; > , ' = = ) ! = - = = = = = = = = ~ > ; +   ",
"  @ > { ] = = = ^ / = - = = = = = = = = ( _ > @   ",
"  = ~ : < = = = = [ } - = = = = = = = = = ( ~ =   ",
"  = | 1 = = = = = 2 [ - = 3 4 = = = = = = = = =   ",
"  = 5 6 = = = = = = 7 8 9 0 a ( = = = = = = = =   ",
"  b c = = = = = = = d e f g h i ( = = = = = = =   ",
"  j k = = = = = = l m n g o p q r ( = = = = = =   ",
"  s 2 = = = = = l t n g u v w x y z ( = = = = =   ",
"  A = = = = = ( m n B C D E F G H I J = = = = =   ",
"  K % % % % L M n g I F N O P Q g R S % % % % T   ",
"  U k k k k V f g W X Y Z ` g g  ...+.@.@.@.@.#.  ",
"  = = = = = $.%.&.*.=.-.Y ;.g >.,.'.).= = = = A   ",
"  = = = = = !.~.{.Z ].^.g g /.(._.:.= = = = <.[.  ",
"  = = = = = }.|.1.2.3.4.g 5.6.7.8.= = = = = 9.j   ",
"  = = = = = = = 0.1.%.g a.b.c.d.= = = = = = 7 e.  ",
"  = = = = = = = = 0.f.g.h.i.j.= = = = = = k.l.=   ",
"  = = = = = = = = = m.n.o.p.j <.= = = = = q.r.=   ",
"  = = = = = = = = = = s.t.= u.v.= = = = w.x.= =   ",
"  = ~ ( = = = = = = = y.= = = l.k.= = = z.A.~ =   ",
"  @ > _ ( = = = = = = y.= = = u.v.= = < B.C.> @   ",
"  + ; > ~ = = = = = = y.= = = = D.E.T F.G.> ; +   ",
"  . + @ = = = = = = = y.= = = = H.I.J.K.= @ + .   ",
"                                                  "};
