/* XPM */
static char * letters_xpm[] = {
"570 9 7 1",
" 	c None",
".	c #000000",
"+	c #00473E",
"@	c #007D71",
"#	c #51ECB7",
"$	c #FFFFFF",
"%	c #00A390",
"                                                                                                                                                                                                                                                                                                                                                                                                                                                                                                                                                                                          ",
"  +++  @###@ @###@ @###@ @###  @@     +++   +#@   ###   ###    @    +@+   +++   +++   +++   +++   ###   +%+  @###@ @###@ @+++@ @###@ @###@ @###@ @###@ @###@  +++  @###@ @###@ @###@ @###@ @###@ @###@  ###  ###%  +###@ @###  @###@ @###@ @###@ @+++@  +#+   +++@ @+++@ @+++  #   # ####  @###@ ####@ @###@ %###  @###@ @###@ %+++% %+++% %+++% @+++@ %+++% @###@ @##+   +++   +++   ###   +++   +++   +++  %+++   +++   +++% @###@ @###@  ###@ @+++@  + +  @+++@ %+++@ %+++   +++   +++   +++  @###@ @###@ ####   ###@ %###% %+++% %+++% @+++% %+++% %+++% @###@  +++   +%+   +++   +++ ",
" +   + #   @ #   + +   # # #   @#  # +   + + @%+ #         # #   # + # + +   + +   + +   + +   # #   # + # + +   # +   # #   # #   + #   + +   # #   # #   # + # + #   # #   # #   # #   # #   # #   # #   # #   # #   + #   # #   + #   + #   + #   # + # + +   # #   # #   + ## ## #   # #   # #   # #   # #   # #   + + # + #   # #   # #   # #   # #   # +   # #   + #   + +   + %   % +   + +   + +   + #   + +   + +   # #   + #   + #   + #   # +   + +   # #   # #   + +   + +   + +   + #   # #   # #   # #   + + # + #   # #   # #   # #   # #   # +   # +   + + # + +   + +   +",
" +   + #   @ #   + +   # # # +    #  +   + +   + #         #  #%#  + # + +   + +   + +   + +  #+ #  ## + # + +   # +   # #   # #   + #   + +   # #   # #   # + @ + +   # +   # +   # +   # +   # #   # #   # #   # #   + #   # #   + #   + #   + #   # + # + +   # #  #+ #   + # # # #   # #   # #   # #   # #   # #   + + # + #   # #   # #   # +# #+ #+ +# +  #+ #   + +#  + +   + #   # +   + +   + +   % #   + +   + +   # #   + #   + #   + #   # + # + +   # #  #+ #   + +   + +   + +   + #   # #   # #   # #   + + # + #   # #   # #   # +# #+ #+ +# +  #+ +   + + # + +   + +   +",
"  +++  @###@ @###@  ###@  ###    #    +++   +++               %#%  ##@##  +++  ##@##  +++   +%+  %+#+%  +%+  @###@  ###@ @###@ @###@ @###@  +++@ @###@ @###@  +++   +@#@  +@#@  +@#@  +@#@  +@#@ @+##@ %###% %###  @+++  @+++@ @###  @###  @+##@ @###@  +@+   +++@ @##+  @+++  @+++@ @+++@ @+++@ %###@ @#++@ ###%  @###@  +@+  @+++@ @+++@ @+++@   #    ###   +#+  @+++   +%+  @+++@  +++   +++   +++   #### %###+ @###@ @###@ @###@ @###@ % ##@ @###@  +++   +++@ @##+@ @+++  %#+#% ##%+   ###  @###@ @#++@ ####   ###   +@+  @+++@ @+++@ @+++@   #    ###   +#+   +++   + +   +++   +++ ",
" +   + @   # #   # +   #   # #  #    +   + +   + #         #  #%#  + # + +   + +   + +   + +#  + ##  # + # + #   + +   # +   # +   # #   # +   # #   # +   # + @ + + # + + # + + # + + # + + # + # ##+ #   # #   # #   + #   # #   + #   + #   # #   # + # + +   # #  #+ #   + #   # #   # #   # #   + # # # #   # +   # + # + #   # #   # # # # +# #+ + # + +#  + #   + +  #+ +   + +   + +   + +   + #   # #   # #   + #   # #   + #   + #   # #   # + # + +   # # ##+ #   + # # # #  #+ #   # #   + # # # #   # +   # + # + #   # #   # # # # +# #+ + # + +#  + +   + + # + +   + +   +",
" +   + @   # #   # +   #   # # #  #@ +   + +   + #         # #   # + # + + @ + +   + +   + #   + #   # + # + #   + +   # +   # +   # #   # +   # #   # +   # + # + +   + +   + +   + +   + +   + #   + #   # #   # #   + #   # #   + #   + #   # #   # + # + +   # #   # #   + #   # #   # #   # #   + #  ## #   # +   # + # + #   # +# #+ ## ## #   # + # + #   + #   + +   # +   + +   + +   + +   + #   # #   # #   + #   # #   + #   + #   # #   # + # + +   # #   # #   + # # # #  #+ #   # #   + #  ## #   # +   # + # + #   # +# #+ ## ## #   # + # + #   + +   + + # + +   + +   +",
"  +++  %###@ @###@  ###@ @###@    @@  +++   +++   ###   ###    @    +@+   @#+   +++   +#+   +++   ###   +#+  @###@ @###@  +++@ @###@ @###@  +++@ @###@ @###@  +++   +#+   +#+   +#+   +#+   +#+  @###@ %+++% ###%  +###@ ####  @###@ #+++  @###@ @+++@  +#+  @###@ @+++@ @###+ %+++% #+++# @###@ %+++  @###@ %+++% @###@  +%+   ###    #   #+ +# %+++%  +#+  %###@ @##+   +++   +++   +++  @###@ @###@ @###% %###  @###@ +#### @###@ #+++   ###% @+++@  +#+  @###@ %+++@ @###+ # % # #++#   ###  %+++  @###@ %+++% %###   +%+  +###+   #   #+++# %+++%   #+  @###@  +++   +%+   +++   +++ ",
"                                                                           #                                                                                                                                                                                                                                                                                                                                                                                                                                                                                                              "};
