/* XPM */
static char * vpointer_xpm[] = {
"16 16 6 1",
" 	c None",
".	c #00A097",
"+	c #43A687",
"@	c #00DAA4",
"#	c #56C4A9",
"$	c #2FFDBB",
"                ",
"                ",
"       ..       ",
"       ..       ",
"                ",
"       ++       ",
"       ++       ",
"                ",
"   @@  ##  @@   ",
"   @@  ##  @@   ",
"     @@  @@     ",
"     @@  @@     ",
"       $$       ",
"       $$       ",
"                ",
"                "};
