/* XPM */
static const char *warn_xpm[] = {
/* width height num_colors chars_per_pixel */
"    39    35        4            1",
/* colors */
". c none",
"# c #000000",
"a c #ffff00",
"b c #ffffff",
/* pixels */
"..................###..................",
".................#####.................",
".................#####.................",
"................#######................",
"...............#########...............",
"...............#########...............",
"..............####aba####..............",
"..............####baa####..............",
".............####abaaa####.............",
"............####aba#aaa####............",
"............####ab###aa####............",
"...........####aba###aaa####...........",
"..........#####ab#####aa#####..........",
"..........####aba#####aaa####..........",
".........####abaa#####aaaa####.........",
".........####abaa#####aaaa####.........",
"........####abaaa#####aaaaa####........",
".......#####abaaa#####aaaaa#####.......",
".......####abaaaa#####aaaaaa####.......",
"......####abaaaaa#####aaaaaaa####......",
"......####abaaaaa#####aaaaaaa####......",
".....####abaaaaaa#####aaaaaaaa####.....",
"....####aabaaaaaaa###aaaaaaaaaa####....",
"....####abaaaaaaaa###aaaaaaaaaa####....",
"...####abaaaaaaaaaa#aaaaaaaaaaaa####...",
"..#####abaaaaaaaaaaaaaaaaaaaaaaa####...",
"..####abaaaaaaaaaaa#aaaaaaaaaaaaa####..",
".####aabaaaaaaaaaa###aaaaaaaaaaaaa####.",
".####abaaaaaaaaaa#####aaaaaaaaaaaa####.",
"####aabaaaaaaaaaaa###aaaaaaaaaaaaaa####",
"####abaaaaaaaaaaaaa#aaaaaaaaaaaaaaa####",
"#####aaaaaaaaaaaaaaaaaaaaaaaaaaaaa#####",
"#######################################",
".#####################################.",
"..###################################.."
};
