/* XPM */
static const char * x1_xpm[] = {
"12 12 83 1",
" 	c None",
".	c #545454",
"+	c #333333",
"@	c #3D3D3D",
"#	c #373737",
"$	c #303030",
"%	c #353535",
"&	c #555555",
"*	c #585858",
"=	c #0B1D0A",
"-	c #184B17",
";	c #020202",
">	c #040404",
",	c #060606",
"'	c #0E0E0E",
")	c #101810",
"!	c #163C15",
"~	c #040E04",
"{	c #535653",
"]	c #123711",
"^	c #4BEF47",
"/	c #1E5F1C",
"(	c #040C04",
"_	c #020602",
":	c #010101",
"<	c #133C12",
"[	c #4EF94B",
"}	c #133D12",
"|	c #2E2E2E",
"1	c #030A03",
"2	c #10350F",
"3	c #43D840",
"4	c #0D2A0C",
"5	c #051105",
"6	c #010501",
"7	c #0B260B",
"8	c #44E444",
"9	c #123E12",
"0	c #000000",
"a	c #343434",
"b	c #48F548",
"c	c #061606",
"d	c #0C290C",
"e	c #45E645",
"f	c #051305",
"g	c #0A0A0A",
"h	c #323232",
"i	c #313131",
"j	c #4AFC4A",
"k	c #091F09",
"l	c #0C0C0C",
"m	c #2D2D2D",
"n	c #071907",
"o	c #4AFA4A",
"p	c #030D03",
"q	c #363636",
"r	c #061506",
"s	c #4CFE4C",
"t	c #051405",
"u	c #3FD23F",
"v	c #081D08",
"w	c #383838",
"x	c #103810",
"y	c #46EB46",
"z	c #144314",
"A	c #164715",
"B	c #4CFD4C",
"C	c #010401",
"D	c #0C280C",
"E	c #4FFC4B",
"F	c #164714",
"G	c #4D4D4D",
"H	c #113A11",
"I	c #154514",
"J	c #020402",
"K	c #525252",
"L	c #464646",
"M	c #202020",
"N	c #2A2A2A",
"O	c #242424",
"P	c #282828",
"Q	c #272727",
"R	c #515151",
" .+@#+$$#%& ",
"*=-;>,'')!~{",
"$]^/(_::<[}|",
"%1234567890a",
"%065bcdef0gh",
"i0065jbk60lh",
"m000noj7p6>q",
"h00rs6tuv56w",
"%0xyr065uz_w",
"%AB7000CDEFw",
"G;H000000IJK",
" LMNOPQQQ|R "};
