/* XPM */
static const char * x2_xpm[] = {
"12 12 34 1",
" 	c None",
".	c #565656",
"+	c #353535",
"@	c #3E3E3E",
"#	c #373737",
"$	c #333333",
"%	c #303030",
"&	c #555555",
"*	c #595959",
"=	c #030303",
"-	c #010101",
";	c #050505",
">	c #060606",
",	c #0E0E0E",
"'	c #000000",
")	c #545454",
"!	c #313131",
"~	c #383838",
"{	c #363636",
"]	c #0C0C0C",
"^	c #323232",
"/	c #2D2D2D",
"(	c #040404",
"_	c #4D4D4D",
":	c #020202",
"<	c #525252",
"[	c #464646",
"}	c #202020",
"|	c #2A2A2A",
"1	c #242424",
"2	c #282828",
"3	c #272727",
"4	c #2E2E2E",
"5	c #515151",
" .+@#$%%#+& ",
"*=-=;>,,,>')",
"!---------'~",
"{'''''''''-#",
"+''''''''']^",
"!''''''''']^",
"/'''''''''({",
"^''''''''''~",
"+'''''''''-~",
"+'''''''''-~",
"_:'''''''':<",
" [}|1233345 "};
