<?xml version="1.0" encoding="UTF-8"?>
<svg xmlns="http://www.w3.org/2000/svg" xmlns:xlink="http://www.w3.org/1999/xlink" width="48pt" height="48pt" viewBox="0 0 48 48" version="1.1">
<defs>
<clipPath id="clip1">
  <rect width="48" height="48"/>
</clipPath>
<g id="surface6" clip-path="url(#clip1)">
<path style=" stroke:none;fill-rule:nonzero;fill:rgb(87.058824%,87.058824%,87.058824%);fill-opacity:1;" d="M 21.070312 14.476562 C 19.847656 13.324219 18.988281 11.792969 18.632812 10.152344 C 18.277344 8.507812 18.433594 6.761719 19.070312 5.203125 C 19.707031 3.648438 20.824219 2.296875 22.226562 1.375 C 23.632812 0.449219 25.320312 -0.0351562 27 0 C 28.585938 0.03125 30.160156 0.527344 31.480469 1.40625 C 32.796875 2.285156 33.859375 3.546875 34.5 5 L 48 8 L 31.757812 8 C 30.851562 6.507812 29.296875 5.425781 27.582031 5.101562 C 26.402344 4.875 25.160156 5 24.050781 5.453125 C 22.941406 5.90625 21.964844 6.6875 21.28125 7.671875 C 20.597656 8.660156 20.203125 9.84375 20.167969 11.042969 C 20.128906 12.242188 20.449219 13.453125 21.070312 14.476562 "/>
<path style=" stroke:none;fill-rule:nonzero;fill:rgb(87.058824%,87.058824%,87.058824%);fill-opacity:1;" d="M 22.5 19.5 L 3 3 C 1.078125 4.984375 -0.0234375 7.738281 0 10.5 C 0.0234375 13.300781 1.207031 16.074219 3.210938 18.03125 C 5.214844 19.988281 8.015625 21.105469 10.816406 21.066406 C 9.277344 20.855469 7.816406 20.101562 6.75 18.96875 C 5.683594 17.839844 5.019531 16.335938 4.898438 14.789062 C 4.785156 13.289062 5.179688 11.757812 6 10.5 L 22.5 19.5 "/>
<path style=" stroke:none;fill-rule:nonzero;fill:rgb(87.058824%,87.058824%,87.058824%);fill-opacity:1;" d="M 21 24 L 1.5 18 C 0.980469 19.984375 1.140625 22.136719 1.945312 24.023438 C 2.753906 25.90625 4.203125 27.507812 6 28.5 C 7.371094 29.257812 8.933594 29.660156 10.5 29.660156 C 12.066406 29.660156 13.628906 29.257812 15 28.5 C 13.738281 28.613281 12.453125 28.40625 11.292969 27.898438 C 10.132812 27.394531 9.101562 26.589844 8.328125 25.589844 C 7.4375 24.433594 6.886719 23.015625 6.773438 21.5625 L 21 24 "/>
<path style=" stroke:none;fill-rule:nonzero;fill:rgb(87.058824%,87.058824%,87.058824%);fill-opacity:1;" d="M 30.058594 13 C 29.222656 13.988281 28.675781 15.21875 28.5 16.5 C 28.335938 17.710938 28.5 18.949219 28.820312 20.128906 C 29.140625 21.304688 29.617188 22.4375 30.085938 23.566406 C 30.554688 24.695312 31.019531 25.828125 31.324219 27.011719 C 31.625 28.195312 31.761719 29.441406 31.558594 30.644531 C 31.21875 32.660156 29.933594 34.453125 28.257812 35.621094 C 26.582031 36.789062 24.539062 37.367188 22.5 37.5 C 19.925781 37.667969 17.3125 37.144531 15 36 L 15.058594 48 L 18.058594 42.03125 C 22.023438 43.191406 26.457031 42.621094 30 40.5 C 31.789062 39.429688 33.359375 37.972656 34.453125 36.199219 C 35.550781 34.425781 36.15625 32.335938 36.058594 30.257812 C 35.917969 27.292969 34.40625 24.589844 32.960938 22 C 31.511719 19.410156 30.054688 16.664062 30.035156 13.695312 C 30.035156 13.464844 30.042969 13.230469 30.058594 13 "/>
</g>
</defs>
<g id="surface1">
<rect x="0" y="0" width="48" height="48" style="fill:rgb(10.196078%,50.196078%,71.372549%);fill-opacity:1;stroke:none;"/>
<use xlink:href="#surface6"/>
</g>
</svg>
