<svg width="48" version="1.1" xmlns="http://www.w3.org/2000/svg" height="48">
<path style="fill:#c9a87b" id="rect2419" d="m 6,4.1217 h 36 c 1.662,0 3,1.338 3,3 v 34.8783 c 0,1.662 -1.338,3 -3,3 h -36 c -1.662,0 -3,-1.338 -3,-3 v -34.8783 c 0,-1.662 1.338,-3 3,-3 z "/>
<path style="fill:#3c2510" id="rect2483" d="m 42.736,9.961 v 9.07986 h -36.956 v -9.0799 Z "/>
<g style="fill:#c9a87b" id="g7" transform="matrix(1.0434904,0,0,1,-1.0218928,0)">
<path id="rect2481" d="M 6.855,4.1614 C 3.86179,4.220128 3.85427,4.1687 3.85427,7.07467 v 9.052865 c 0,2.92589 0.122133,2.84767 3,2.91327 L 24.8594,17.469865 V 3.19024 Z"/>
<path id="path3262" d="m 41.3546,4.1614 c 2.6869,0.058728 2.7492,0.066026 2.7492,2.91327 v 9.05287 c 0,2.99149 -0.235701,2.97887 -2.7492,2.91327 l -16.4952,-1.5709 v -14.2796 Z "/>
</g>
<g style="opacity:.13" id="g836">
<path id="path826" d="m 24.7014,31.4285 c -0.458483,-0.432135 -0.780738,-1.50636 -0.913795,-2.12161 -0.133296,-0.616709 -0.07471,-1.27151 0.164057,-1.85598 0.238763,-0.583016 0.657697,-1.08986 1.18357,-1.43556 0.527329,-0.347173 1.16013,-0.528816 1.79,-0.515633 0.594708,0.01172 1.18503,0.197758 1.68012,0.527352 0.493637,0.329595 0.892063,0.802746 1.13228,1.34767 l 5.0624,1.625 -6.0906,-.5 -1.5659,-1.0869 -1.3242,.1318 c -2.04638,1.00226 -1.71935,2.75929 -1.11764,3.88384"/>
<path id="path828" d="m 17.9251,26.625 c -0.720681,0.744151 -1.13376,1.77683 -1.12497,2.81249 0.0088,1.05031 1.32602,3.1272 1.32602,3.1272 l -.7635,-.3147 c -0.194818,0.744152 -0.266363,1.56132 0.03539,2.26885 l 3.3396,2.1042 1.6875,.0645 c -0.47313,0.04248 -1.09872,-0.219474 -1.55466,-0.521482 -0.396815,-0.262844 -0.736467,-0.643548 -0.947249,-1.0703 -0.213625,-0.432528 -0.234859,-0.874988 -0.277338,-1.41992 l 5.0292,1.3242 -6.2027,-2.4588 .1285,-3.0498 6.6367,3.8211 z "/>
<path id="path832" d="m 27.6076,33.0481 .939,2.5811 c 0.112789,0.443854 0.164057,0.911147 0.08789,1.36232 -0.127437,0.75587 -0.609356,1.42824 -1.23775,1.86623 -0.628399,0.437995 -1.39449,0.654795 -2.15911,0.7046 -0.965305,0.06299 -1.94526,-0.133303 -2.81241,-0.562509 l .022,4.5001 1.125,-2.2383 6.1477,-2.1871 .6138,-1.6656 c 0.118472,-1.25771 -0.648203,-2.66588 -1.1733,-3.65922 -0.359134,-0.67938 -1.0725,-1.89246 -1.08834,-2.87505 z "/>
</g>
<g style="fill:#fcfaf8" id="g834" transform="translate(-9.2,0)">
<path id="path831" d="m 33.9014,31.4285 c -0.458493,-0.432136 -0.780756,-1.00637 -0.914056,-1.62161 -0.133299,-0.616711 -0.07471,-1.27151 0.164061,-1.85599 0.238768,-0.583019 0.657711,-1.08986 1.18359,-1.43557 0.52734,-0.347174 1.16015,-0.528818 1.79003,-0.515634 0.594722,0.01172 1.18505,0.197758 1.68016,0.527353 0.493648,0.329596 0.892083,0.802749 1.13231,1.34768 l 5.0625,1.125 h -6.0908 c -0.339841,-0.559581 -0.922845,-0.965345 -1.56591,-1.08693 -0.44238,-0.08496 -0.908196,-0.03809 -1.32421,0.131838 -0.416012,0.169925 -0.78222,0.462899 -1.03857,0.832047 -0.256346,0.370612 -0.404294,0.814468 -0.417477,1.26418 -0.01465,0.449716 0.105468,0.903825 0.338376,1.28762"/>
<path id="path833" d="m 27.1251,27.1247 c -0.720697,0.744154 -1.13378,1.77689 -1.12499,2.81255 0.0088,1.05031 0.452633,2.09037 1.20409,2.82427 0.751459,0.7339 1.80174,1.15285 2.85203,1.1382 -0.577144,-0.0791 -1.12499,-0.361823 -1.52489,-0.786635 -0.4,-0.423348 -0.648921,-0.987323 -0.694331,-1.56741 -0.04248,-0.56251 0.105468,-1.13674 0.413083,-1.60843 l 6.1875,3.3751 z"/>
<path id="path835" d="m 26.5626,32.7498 c -0.194823,0.744154 -0.134765,1.5513 0.16699,2.25883 0.303221,0.706068 0.846674,1.30666 1.5205,1.67874 0.514156,0.284185 1.1,0.435066 1.68749,0.435066 0.587398,0 1.17333,-0.150881 1.68749,-0.435066 -0.473141,0.04248 -0.955071,-0.03516 -1.39013,-0.22559 -0.435055,-0.188969 -0.821771,-0.490732 -1.11181,-0.865739 -0.333982,-0.433601 -0.540523,-0.96535 -0.583003,-1.51028 l 5.3349,.9141 z "/>
<path id="path837" d="m 37.272,30.8748 c -0.313475,0.370612 -0.518551,0.832047 -0.584469,1.31252 -0.06152,0.45411 0,0.918474 0.120117,1.36086 0.120116,0.440926 0.298826,0.865739 0.474606,1.28909 0.17578,0.423348 0.350094,0.84816 0.464352,1.29202 0.112792,0.443856 0.164061,0.91115 0.08789,1.36233 -0.12744,0.755873 -0.60937,1.42825 -1.23778,1.86624 -0.628413,0.437996 -1.39452,0.654797 -2.15916,0.704603 -0.965325,0.06299 -1.9453,-0.133304 -2.81248,-0.562511 l .022,4.5001 1.125,-2.2383 c 1.48681,0.435066 3.14939,0.221195 4.47799,-0.57423 0.670893,-0.401374 1.25976,-0.947771 1.66991,-1.61282 0.411618,-0.665052 0.638667,-1.44876 0.602047,-2.22807 -0.05273,-1.11184 -0.619625,-2.12553 -1.16161,-3.09674 -0.543452,-0.971209 -1.08984,-2.00101 -1.09716,-3.11432 0,-0.08643 0.0029,-0.174319 0.0088,-0.260747"/>
</g>
<path style="opacity:.5;fill:#3a240f" id="path5008" d="m 27.2784,3.2781 h -6.49785 l .0948,21.3224 6.3082,-.522 z "/>
<path style="fill:#dbcdb5" id="polygon120" d="M 27.24945,3.216 24,3 l -3.2494,0.216 0.0948,20.897988 6.30915,-0.4985 z"/>
<g id="g15">
<path style="opacity:.19;fill:#8d6137" id="rect4363" d="M 23.5134,3.04 24,3.01 v 14.979365 h -0.486647 z"/>
<path style="opacity:.21;fill:#fff" id="rect4365" d="m 24,3.01 0.486647,0.03 V 17.989316 H 24 Z"/>
</g>
</svg>
